<?xml version="1.0" standalone="no"?>
<!DOCTYPE svg PUBLIC "-//W3C//DTD SVG 20010904//EN"
 "http://www.w3.org/TR/2001/REC-SVG-20010904/DTD/svg10.dtd">
<svg version="1.0" xmlns="http://www.w3.org/2000/svg"
 width="510.000000pt" height="510.000000pt" viewBox="0 0 510.000000 510.000000"
 preserveAspectRatio="xMidYMid meet">
<metadata>
Created by potrace 1.11, written by Peter Selinger 2001-2013
</metadata>
<g transform="translate(0.000000,510.000000) scale(0.100000,-0.100000)"
fill="#000000" stroke="none">
<path d="M3728 3715 c-2 -1 -30 -5 -63 -9 -98 -10 -116 -14 -200 -39 -233 -71
-415 -201 -536 -387 -140 -213 -203 -451 -202 -760 2 -366 109 -659 315 -862
135 -134 300 -219 513 -263 182 -38 424 -41 645 -9 162 23 357 108 510 222 57
42 161 143 158 153 -3 6 -114 127 -242 264 -15 16 -46 49 -68 73 l-40 43 -56
-56 c-157 -158 -328 -224 -562 -219 -120 2 -129 4 -215 29 -118 34 -229 140
-275 262 -22 59 -41 196 -29 215 5 8 202 11 782 11 l775 0 -3 186 c-2 142 -8
210 -24 288 -101 483 -397 770 -876 848 -40 7 -301 15 -307 10z m202 -468
c170 -23 302 -143 344 -313 17 -67 26 -168 17 -181 -3 -5 -210 -9 -458 -8
l-453 0 -1 25 c-6 133 41 266 125 353 99 103 253 147 426 124z"/>
<path d="M184 3655 c-1 -5 -2 -118 -1 -250 l2 -240 250 -2 c138 -1 255 -2 262
-2 8 -1 11 -157 11 -621 l0 -620 -57 -1 c-31 0 -149 -1 -262 -1 l-206 -1 -1
-236 c0 -130 1 -243 4 -251 3 -13 117 -15 961 -15 527 -1 960 3 963 6 4 6 5
447 1 485 -1 8 -102 11 -348 12 -192 0 -359 1 -373 1 l-25 1 1 373 c1 401 5
445 56 536 61 108 135 173 243 213 56 21 79 23 368 26 l307 4 -2 296 -3 297
-130 0 c-71 1 -159 -3 -195 -7 -287 -34 -486 -219 -593 -549 -14 -41 -31 -75
-38 -77 -12 -2 -14 50 -14 313 0 173 -2 316 -5 316 -3 1 -268 2 -589 3 -385 1
-585 -2 -587 -9z"/>
</g>
</svg>
