<svg width="62" height="19" viewBox="0 0 62 19" fill="none" xmlns="http://www.w3.org/2000/svg">
<path d="M0.382672 18.3363L7.34267 0.376308H8.78267L1.82267 18.3363H0.382672ZM20.0749 13.8963H19.9949C19.3282 15.1763 18.2682 15.8163 16.8149 15.8163C15.5482 15.8163 14.5549 15.343 13.8349 14.3963C13.1282 13.4496 12.7749 12.123 12.7749 10.4163C12.7749 8.70964 13.1282 7.38298 13.8349 6.43631C14.5549 5.48964 15.5482 5.01631 16.8149 5.01631C18.2682 5.01631 19.3282 5.65631 19.9949 6.93631H20.0749V0.776309H21.6749V15.5763H20.0749V13.8963ZM17.4349 14.3963C17.7949 14.3963 18.1349 14.3496 18.4549 14.2563C18.7749 14.163 19.0549 14.0296 19.2949 13.8563C19.5349 13.6696 19.7215 13.4496 19.8549 13.1963C20.0015 12.9296 20.0749 12.623 20.0749 12.2763V8.55631C20.0749 8.20964 20.0015 7.90964 19.8549 7.65631C19.7215 7.38964 19.5349 7.16964 19.2949 6.99631C19.0549 6.80964 18.7749 6.66964 18.4549 6.57631C18.1349 6.48298 17.7949 6.43631 17.4349 6.43631C16.5015 6.43631 15.7749 6.72298 15.2549 7.29631C14.7482 7.85631 14.4949 8.60298 14.4949 9.53631V11.2963C14.4949 12.2296 14.7482 12.983 15.2549 13.5563C15.7749 14.1163 16.5015 14.3963 17.4349 14.3963ZM30.567 15.8163C29.847 15.8163 29.1937 15.6896 28.607 15.4363C28.0337 15.183 27.5404 14.823 27.127 14.3563C26.727 13.8763 26.4204 13.3096 26.207 12.6563C25.9937 11.9896 25.887 11.243 25.887 10.4163C25.887 9.60298 25.9937 8.86298 26.207 8.19631C26.4204 7.52964 26.727 6.96298 27.127 6.49631C27.5404 6.01631 28.0337 5.64964 28.607 5.39631C29.1937 5.14298 29.847 5.01631 30.567 5.01631C31.287 5.01631 31.9337 5.14298 32.507 5.39631C33.0937 5.64964 33.587 6.01631 33.987 6.49631C34.4004 6.96298 34.7137 7.52964 34.927 8.19631C35.1404 8.86298 35.247 9.60298 35.247 10.4163C35.247 11.243 35.1404 11.9896 34.927 12.6563C34.7137 13.3096 34.4004 13.8763 33.987 14.3563C33.587 14.823 33.0937 15.183 32.507 15.4363C31.9337 15.6896 31.287 15.8163 30.567 15.8163ZM30.567 14.4363C31.4604 14.4363 32.1804 14.1696 32.727 13.6363C33.2737 13.103 33.547 12.2763 33.547 11.1563V9.67631C33.547 8.55631 33.2737 7.72964 32.727 7.19631C32.1804 6.66298 31.4604 6.39631 30.567 6.39631C29.6737 6.39631 28.9537 6.66298 28.407 7.19631C27.8604 7.72964 27.587 8.55631 27.587 9.67631V11.1563C27.587 12.2763 27.8604 13.103 28.407 13.6363C28.9537 14.1696 29.6737 14.4363 30.567 14.4363ZM43.9192 15.8163C43.1726 15.8163 42.5059 15.6896 41.9192 15.4363C41.3459 15.1696 40.8592 14.803 40.4592 14.3363C40.0592 13.8696 39.7526 13.303 39.5392 12.6363C39.3392 11.9696 39.2392 11.2296 39.2392 10.4163C39.2392 9.60298 39.3459 8.86298 39.5592 8.19631C39.7726 7.52964 40.0792 6.96298 40.4792 6.49631C40.8792 6.01631 41.3659 5.64964 41.9392 5.39631C42.5126 5.14298 43.1659 5.01631 43.8992 5.01631C44.8992 5.01631 45.7126 5.23631 46.3392 5.67631C46.9659 6.11631 47.4259 6.68964 47.7192 7.39631L46.4392 8.07631C46.2526 7.54298 45.9392 7.12964 45.4992 6.83631C45.0726 6.54298 44.5392 6.39631 43.8992 6.39631C43.4326 6.39631 43.0126 6.47631 42.6392 6.63631C42.2792 6.78298 41.9726 6.99631 41.7192 7.27631C41.4659 7.55631 41.2726 7.88964 41.1392 8.27631C41.0192 8.66298 40.9592 9.08298 40.9592 9.53631V11.2963C40.9592 11.7496 41.0192 12.1696 41.1392 12.5563C41.2726 12.943 41.4659 13.2763 41.7192 13.5563C41.9726 13.8363 42.2859 14.0563 42.6592 14.2163C43.0326 14.363 43.4592 14.4363 43.9392 14.4363C44.6326 14.4363 45.2059 14.2763 45.6592 13.9563C46.1126 13.6363 46.4726 13.1963 46.7392 12.6363L47.8792 13.4163C47.5726 14.1096 47.0926 14.683 46.4392 15.1363C45.7992 15.5896 44.9592 15.8163 43.9192 15.8163ZM56.6714 15.8163C55.5914 15.8163 54.6581 15.6363 53.8714 15.2763C53.0981 14.903 52.4381 14.4096 51.8914 13.7963L52.9714 12.8563C53.4648 13.3763 54.0048 13.7763 54.5914 14.0563C55.1781 14.3363 55.8848 14.4763 56.7114 14.4763C57.5114 14.4763 58.1648 14.3363 58.6714 14.0563C59.1914 13.763 59.4514 13.3096 59.4514 12.6963C59.4514 12.4296 59.3981 12.2096 59.2914 12.0363C59.1981 11.8496 59.0648 11.703 58.8914 11.5963C58.7181 11.4896 58.5248 11.4096 58.3114 11.3563C58.0981 11.2896 57.8714 11.2363 57.6314 11.1963L56.0114 10.9563C55.6514 10.903 55.2581 10.8296 54.8314 10.7363C54.4181 10.643 54.0381 10.4963 53.6914 10.2963C53.3448 10.083 53.0514 9.80298 52.8114 9.45631C52.5848 9.10964 52.4714 8.65631 52.4714 8.09631C52.4714 7.57631 52.5714 7.12964 52.7714 6.75631C52.9848 6.36964 53.2781 6.04964 53.6514 5.79631C54.0248 5.52964 54.4648 5.33631 54.9714 5.21631C55.4781 5.08298 56.0314 5.01631 56.6314 5.01631C57.5648 5.01631 58.3714 5.16298 59.0514 5.45631C59.7448 5.74964 60.3381 6.15631 60.8314 6.67631L59.7914 7.65631C59.6714 7.50964 59.5181 7.36298 59.3314 7.21631C59.1581 7.05631 58.9381 6.91631 58.6714 6.79631C58.4181 6.66298 58.1181 6.55631 57.7714 6.47631C57.4248 6.39631 57.0248 6.35631 56.5714 6.35631C55.7581 6.35631 55.1314 6.49631 54.6914 6.77631C54.2648 7.05631 54.0514 7.46298 54.0514 7.99631C54.0514 8.26298 54.0981 8.48964 54.1914 8.67631C54.2981 8.84964 54.4381 8.98964 54.6114 9.09631C54.7848 9.20298 54.9781 9.28964 55.1914 9.35631C55.4181 9.40964 55.6448 9.45631 55.8714 9.49631L57.4914 9.73631C57.8648 9.78964 58.2581 9.86298 58.6714 9.95631C59.0848 10.0496 59.4648 10.203 59.8114 10.4163C60.1581 10.6163 60.4448 10.8896 60.6714 11.2363C60.9114 11.583 61.0314 12.0363 61.0314 12.5963C61.0314 13.623 60.6314 14.4163 59.8314 14.9763C59.0448 15.5363 57.9914 15.8163 56.6714 15.8163Z" fill="#E3E0EC"/>
</svg>
