<svg width="8" height="6" viewBox="0 0 8 6" fill="none" xmlns="http://www.w3.org/2000/svg">
<path d="M6.91652 0.219296L4 3.7193L1.08348 0.219296C1.0151 0.13722 0.936625 0.076149 0.852519 0.0395694C0.768414 0.00298983 0.680329 -0.00838168 0.593294 0.00610426C0.506259 0.0205902 0.421978 0.0606497 0.345263 0.123996C0.268549 0.187342 0.200903 0.272734 0.146188 0.375296C0.0914734 0.477859 0.0507612 0.595583 0.026376 0.721747C0.00199082 0.847912 -0.00558977 0.980046 0.00406705 1.11061C0.0137239 1.24116 0.040429 1.36759 0.0826576 1.48267C0.124886 1.59775 0.181811 1.69922 0.250183 1.7813L3.58335 5.7813C3.70159 5.9233 3.84854 6.00067 4 6.00067C4.15146 6.00067 4.29841 5.9233 4.41665 5.7813L7.74981 1.7813C7.8879 1.61554 7.97643 1.37428 7.99593 1.11061C8.01543 0.846929 7.96431 0.58243 7.85381 0.375296C7.79909 0.272734 7.73145 0.187342 7.65473 0.123996C7.57802 0.0606497 7.49374 0.0205902 7.4067 0.00610426C7.23093 -0.0231514 7.0546 0.0535362 6.91652 0.219296Z" fill="#473466"/>
</svg>
