<svg width="7" height="4" viewBox="0 0 7 4" fill="none" xmlns="http://www.w3.org/2000/svg">
<path fill-rule="evenodd" clip-rule="evenodd" d="M2.55032 3.62496C2.58173 3.68691 2.62293 3.74505 2.67392 3.797C2.86631 3.99301 3.14526 4.04708 3.3854 3.95919C3.48957 3.92729 3.58771 3.86942 3.67001 3.78557C3.70594 3.74896 3.73701 3.70928 3.76323 3.66735L6.20145 1.18318C6.46711 0.912514 6.46711 0.473672 6.20145 0.203002C5.93578 -0.0676672 5.50506 -0.0676676 5.23939 0.203002L3.17758 2.30367L1.1613 0.249406C0.895638 -0.0212639 0.464912 -0.0212639 0.199248 0.249406C-0.0664158 0.520075 -0.0664161 0.958917 0.199248 1.22959L2.55032 3.62496Z" fill="black"/>
</svg>
