<svg width="97" height="24" viewBox="0 0 97 24" fill="none" xmlns="http://www.w3.org/2000/svg">
<path fill-rule="evenodd" clip-rule="evenodd" d="M54.9925 0H49.2969V23.3271H54.9925L54.9925 0ZM8.54342 11.1723H12.3794C17.5055 11.1723 21.4924 15.155 21.4924 19.7066V23.2755H15.2272V19.7066C15.2272 17.9998 14.0881 16.8619 12.3794 16.8619H8.54342C3.98693 16.8619 0 13.3447 0 8.79308C0 4.24146 3.98693 0.258789 8.54342 0.258789H20.3533V5.94832H8.54342C6.83474 5.94832 5.69561 7.08622 5.69561 8.79308C5.69561 10.4999 6.83474 11.1723 8.54342 11.1723ZM38.4749 12.2068H31.0706V0.258789H25.375V23.5859H31.0706V17.8963H38.4749V23.5859H44.1705V0.258789H38.4749V12.2068ZM74.3572 5.94832H65.8138V12.2068H74.9268V17.8963H65.8138V23.5859H60.1182V0.258789H74.3572V5.94832ZM78 0.258789V5.94832H84.2652V23.5859H89.9608V5.94832H96.226V0.258789H78Z" fill="#FF4F4F"/>
</svg>
