<svg width="62" height="19" viewBox="0 0 62 19" fill="none" xmlns="http://www.w3.org/2000/svg">
<path d="M0.882672 18.7051L7.84267 0.745052H9.28267L2.32267 18.7051H0.882672ZM20.5749 14.2651H20.4949C19.8282 15.5451 18.7682 16.1851 17.3149 16.1851C16.0482 16.1851 15.0549 15.7117 14.3349 14.7651C13.6282 13.8184 13.2749 12.4917 13.2749 10.7851C13.2749 9.07839 13.6282 7.75172 14.3349 6.80505C15.0549 5.85839 16.0482 5.38505 17.3149 5.38505C18.7682 5.38505 19.8282 6.02505 20.4949 7.30505H20.5749V1.14505H22.1749V15.9451H20.5749V14.2651ZM17.9349 14.7651C18.2949 14.7651 18.6349 14.7184 18.9549 14.6251C19.2749 14.5317 19.5549 14.3984 19.7949 14.2251C20.0349 14.0384 20.2215 13.8184 20.3549 13.5651C20.5015 13.2984 20.5749 12.9917 20.5749 12.6451V8.92505C20.5749 8.57839 20.5015 8.27839 20.3549 8.02505C20.2215 7.75839 20.0349 7.53839 19.7949 7.36505C19.5549 7.17839 19.2749 7.03839 18.9549 6.94505C18.6349 6.85172 18.2949 6.80505 17.9349 6.80505C17.0015 6.80505 16.2749 7.09172 15.7549 7.66505C15.2482 8.22505 14.9949 8.97172 14.9949 9.90505V11.6651C14.9949 12.5984 15.2482 13.3517 15.7549 13.9251C16.2749 14.4851 17.0015 14.7651 17.9349 14.7651ZM31.067 16.1851C30.347 16.1851 29.6937 16.0584 29.107 15.8051C28.5337 15.5517 28.0404 15.1917 27.627 14.7251C27.227 14.2451 26.9204 13.6784 26.707 13.0251C26.4937 12.3584 26.387 11.6117 26.387 10.7851C26.387 9.97172 26.4937 9.23172 26.707 8.56505C26.9204 7.89839 27.227 7.33172 27.627 6.86505C28.0404 6.38505 28.5337 6.01839 29.107 5.76505C29.6937 5.51172 30.347 5.38505 31.067 5.38505C31.787 5.38505 32.4337 5.51172 33.007 5.76505C33.5937 6.01839 34.087 6.38505 34.487 6.86505C34.9004 7.33172 35.2137 7.89839 35.427 8.56505C35.6404 9.23172 35.747 9.97172 35.747 10.7851C35.747 11.6117 35.6404 12.3584 35.427 13.0251C35.2137 13.6784 34.9004 14.2451 34.487 14.7251C34.087 15.1917 33.5937 15.5517 33.007 15.8051C32.4337 16.0584 31.787 16.1851 31.067 16.1851ZM31.067 14.8051C31.9604 14.8051 32.6804 14.5384 33.227 14.0051C33.7737 13.4717 34.047 12.6451 34.047 11.5251V10.0451C34.047 8.92505 33.7737 8.09839 33.227 7.56505C32.6804 7.03172 31.9604 6.76505 31.067 6.76505C30.1737 6.76505 29.4537 7.03172 28.907 7.56505C28.3604 8.09839 28.087 8.92505 28.087 10.0451V11.5251C28.087 12.6451 28.3604 13.4717 28.907 14.0051C29.4537 14.5384 30.1737 14.8051 31.067 14.8051ZM44.4192 16.1851C43.6726 16.1851 43.0059 16.0584 42.4192 15.8051C41.8459 15.5384 41.3592 15.1717 40.9592 14.7051C40.5592 14.2384 40.2526 13.6717 40.0392 13.0051C39.8392 12.3384 39.7392 11.5984 39.7392 10.7851C39.7392 9.97172 39.8459 9.23172 40.0592 8.56505C40.2726 7.89839 40.5792 7.33172 40.9792 6.86505C41.3792 6.38505 41.8659 6.01839 42.4392 5.76505C43.0126 5.51172 43.6659 5.38505 44.3992 5.38505C45.3992 5.38505 46.2126 5.60505 46.8392 6.04505C47.4659 6.48505 47.9259 7.05839 48.2192 7.76505L46.9392 8.44505C46.7526 7.91172 46.4392 7.49839 45.9992 7.20505C45.5726 6.91172 45.0392 6.76505 44.3992 6.76505C43.9326 6.76505 43.5126 6.84505 43.1392 7.00505C42.7792 7.15172 42.4726 7.36505 42.2192 7.64505C41.9659 7.92505 41.7726 8.25839 41.6392 8.64505C41.5192 9.03172 41.4592 9.45172 41.4592 9.90505V11.6651C41.4592 12.1184 41.5192 12.5384 41.6392 12.9251C41.7726 13.3117 41.9659 13.6451 42.2192 13.9251C42.4726 14.2051 42.7859 14.4251 43.1592 14.5851C43.5326 14.7317 43.9592 14.8051 44.4392 14.8051C45.1326 14.8051 45.7059 14.6451 46.1592 14.3251C46.6126 14.0051 46.9726 13.5651 47.2392 13.0051L48.3792 13.7851C48.0726 14.4784 47.5926 15.0517 46.9392 15.5051C46.2992 15.9584 45.4592 16.1851 44.4192 16.1851ZM57.1714 16.1851C56.0914 16.1851 55.1581 16.0051 54.3714 15.6451C53.5981 15.2717 52.9381 14.7784 52.3914 14.1651L53.4714 13.2251C53.9648 13.7451 54.5048 14.1451 55.0914 14.4251C55.6781 14.7051 56.3848 14.8451 57.2114 14.8451C58.0114 14.8451 58.6648 14.7051 59.1714 14.4251C59.6914 14.1317 59.9514 13.6784 59.9514 13.0651C59.9514 12.7984 59.8981 12.5784 59.7914 12.4051C59.6981 12.2184 59.5648 12.0717 59.3914 11.9651C59.2181 11.8584 59.0248 11.7784 58.8114 11.7251C58.5981 11.6584 58.3714 11.6051 58.1314 11.5651L56.5114 11.3251C56.1514 11.2717 55.7581 11.1984 55.3314 11.1051C54.9181 11.0117 54.5381 10.8651 54.1914 10.6651C53.8448 10.4517 53.5514 10.1717 53.3114 9.82505C53.0848 9.47839 52.9714 9.02505 52.9714 8.46505C52.9714 7.94505 53.0714 7.49839 53.2714 7.12505C53.4848 6.73839 53.7781 6.41839 54.1514 6.16505C54.5248 5.89839 54.9648 5.70505 55.4714 5.58505C55.9781 5.45172 56.5314 5.38505 57.1314 5.38505C58.0648 5.38505 58.8714 5.53172 59.5514 5.82505C60.2448 6.11839 60.8381 6.52505 61.3314 7.04505L60.2914 8.02505C60.1714 7.87839 60.0181 7.73172 59.8314 7.58505C59.6581 7.42505 59.4381 7.28505 59.1714 7.16505C58.9181 7.03172 58.6181 6.92505 58.2714 6.84505C57.9248 6.76505 57.5248 6.72505 57.0714 6.72505C56.2581 6.72505 55.6314 6.86505 55.1914 7.14505C54.7648 7.42505 54.5514 7.83172 54.5514 8.36505C54.5514 8.63172 54.5981 8.85839 54.6914 9.04505C54.7981 9.21839 54.9381 9.35839 55.1114 9.46505C55.2848 9.57172 55.4781 9.65839 55.6914 9.72505C55.9181 9.77839 56.1448 9.82505 56.3714 9.86505L57.9914 10.1051C58.3648 10.1584 58.7581 10.2317 59.1714 10.3251C59.5848 10.4184 59.9648 10.5717 60.3114 10.7851C60.6581 10.9851 60.9448 11.2584 61.1714 11.6051C61.4114 11.9517 61.5314 12.4051 61.5314 12.9651C61.5314 13.9917 61.1314 14.7851 60.3314 15.3451C59.5448 15.9051 58.4914 16.1851 57.1714 16.1851Z" fill="#E3E0EC"/>
</svg>
