<svg width="33" height="33" viewBox="0 0 33 33" fill="none" xmlns="http://www.w3.org/2000/svg">
<rect x="0.129898" y="0.945053" width="32" height="32" rx="7.5" fill="#053A20"/>
<path d="M5.90768 13.2673H8.10322V8.06464H5.90768V5.97265H10.8338V8.62856H10.963C11.0491 8.28899 11.1659 7.96155 11.3135 7.64624C11.4734 7.3188 11.6702 7.0338 11.9039 6.79125C12.1499 6.53657 12.4451 6.33647 12.7895 6.19094C13.1339 6.04541 13.5398 5.97265 14.0072 5.97265H14.9113V8.44665H12.8818C12.2053 8.44665 11.6948 8.64675 11.3504 9.04696C11.006 9.43504 10.8338 9.91408 10.8338 10.4841V13.2673H13.9703V15.3593H5.90768V13.2673Z" fill="#0FC069"/>
<path d="M21.3984 15.5776C19.7994 15.5776 18.5879 15.141 17.7638 14.2678C16.9397 13.3947 16.5277 12.2062 16.5277 10.7024C16.5277 9.93833 16.6322 9.25313 16.8413 8.64675C17.0627 8.02825 17.3702 7.50677 17.7638 7.08231C18.1697 6.64572 18.6556 6.31828 19.2214 6.09998C19.7994 5.86956 20.4452 5.75435 21.1586 5.75435C21.872 5.75435 22.5116 5.86956 23.0774 6.09998C23.6432 6.31828 24.1229 6.63359 24.5165 7.04593C24.9101 7.45826 25.2114 7.96155 25.4205 8.5558C25.6419 9.13792 25.7526 9.7928 25.7526 10.5205V11.3209H19.2398V11.4846C19.2398 12.091 19.4304 12.5821 19.8117 12.9581C20.193 13.3219 20.7527 13.5038 21.4907 13.5038C22.0565 13.5038 22.5423 13.4007 22.9482 13.1946C23.3541 12.9763 23.7047 12.6913 23.9999 12.3396L25.4759 13.9222C25.1069 14.3709 24.5903 14.759 23.9261 15.0864C23.2619 15.4139 22.4193 15.5776 21.3984 15.5776ZM21.177 7.68262C20.5866 7.68262 20.1131 7.86453 19.7564 8.22836C19.412 8.58005 19.2398 9.05909 19.2398 9.66546V9.81099H23.0774V9.66546C23.0774 9.04696 22.9052 8.56186 22.5608 8.21017C22.2287 7.85847 21.7674 7.68262 21.177 7.68262Z" fill="#0FC069"/>
<path d="M23.2784 28.2784L20.5174 22.336H20.3008L17.5397 28.2784H15.241L19.0556 19.8339H21.8889L25.6854 28.2784H23.2784Z" fill="white"/>
</svg>
