<svg width="156" height="34" viewBox="0 0 156 34" fill="none" xmlns="http://www.w3.org/2000/svg">
<path d="M2.002 25.232H5.928V15.352H2.002V13.584H8.008V16.964H8.138C8.41533 15.9067 8.93533 15.0833 9.698 14.494C10.478 13.8873 11.466 13.584 12.662 13.584H14.534V15.664H12.012C10.816 15.664 9.84533 16.0107 9.1 16.704C8.372 17.3973 8.008 18.3073 8.008 19.434V25.232H13.208V27H2.002V25.232ZM23.6238 27.312C22.6532 27.312 21.7778 27.1473 20.9978 26.818C20.2352 26.4887 19.5765 26.0207 19.0218 25.414C18.4845 24.79 18.0685 24.0533 17.7738 23.204C17.4792 22.3373 17.3318 21.3753 17.3318 20.318C17.3318 19.2433 17.4792 18.2727 17.7738 17.406C18.0858 16.5393 18.5105 15.8027 19.0478 15.196C19.5852 14.572 20.2265 14.0953 20.9718 13.766C21.7345 13.4367 22.5752 13.272 23.4938 13.272C24.3952 13.272 25.2098 13.4367 25.9378 13.766C26.6832 14.0953 27.3158 14.5547 27.8358 15.144C28.3558 15.716 28.7545 16.4007 29.0318 17.198C29.3092 17.9953 29.4478 18.8707 29.4478 19.824V20.812H19.5158V21.436C19.5158 22.0253 19.6112 22.5713 19.8018 23.074C19.9925 23.5767 20.2612 24.01 20.6078 24.374C20.9718 24.738 21.4052 25.024 21.9078 25.232C22.4278 25.4227 22.9998 25.518 23.6238 25.518C24.5252 25.518 25.3052 25.31 25.9638 24.894C26.6225 24.478 27.1252 23.906 27.4718 23.178L29.0058 24.218C28.6072 25.1193 27.9398 25.8647 27.0038 26.454C26.0852 27.026 24.9585 27.312 23.6238 27.312ZM23.4938 14.988C22.9218 14.988 22.3932 15.092 21.9078 15.3C21.4225 15.508 20.9978 15.794 20.6338 16.158C20.2872 16.522 20.0098 16.9553 19.8018 17.458C19.6112 17.9433 19.5158 18.4807 19.5158 19.07V19.252H27.2118V18.966C27.2118 18.3767 27.1165 17.8393 26.9258 17.354C26.7525 16.8687 26.5012 16.4527 26.1718 16.106C25.8598 15.742 25.4698 15.4647 25.0018 15.274C24.5512 15.0833 24.0485 14.988 23.4938 14.988ZM54.7255 27.312C53.3215 27.312 52.1082 27.078 51.0855 26.61C50.0802 26.1247 49.2222 25.4833 48.5115 24.686L49.9155 23.464C50.5569 24.14 51.2589 24.66 52.0215 25.024C52.7842 25.388 53.7029 25.57 54.7775 25.57C55.8175 25.57 56.6669 25.388 57.3255 25.024C58.0015 24.6427 58.3395 24.0533 58.3395 23.256C58.3395 22.9093 58.2702 22.6233 58.1315 22.398C58.0102 22.1553 57.8369 21.9647 57.6115 21.826C57.3862 21.6873 57.1349 21.5833 56.8575 21.514C56.5802 21.4273 56.2855 21.358 55.9735 21.306L53.8675 20.994C53.3995 20.9247 52.8882 20.8293 52.3335 20.708C51.7962 20.5867 51.3022 20.396 50.8515 20.136C50.4009 19.8587 50.0195 19.4947 49.7075 19.044C49.4129 18.5933 49.2655 18.004 49.2655 17.276C49.2655 16.6 49.3955 16.0193 49.6555 15.534C49.9329 15.0313 50.3142 14.6153 50.7995 14.286C51.2849 13.9393 51.8569 13.688 52.5155 13.532C53.1742 13.3587 53.8935 13.272 54.6735 13.272C55.8869 13.272 56.9355 13.4627 57.8195 13.844C58.7209 14.2253 59.4922 14.754 60.1335 15.43L58.7815 16.704C58.6255 16.5133 58.4262 16.3227 58.1835 16.132C57.9582 15.924 57.6722 15.742 57.3255 15.586C56.9962 15.4127 56.6062 15.274 56.1555 15.17C55.7049 15.066 55.1849 15.014 54.5955 15.014C53.5382 15.014 52.7235 15.196 52.1515 15.56C51.5969 15.924 51.3195 16.4527 51.3195 17.146C51.3195 17.4927 51.3802 17.7873 51.5015 18.03C51.6402 18.2553 51.8222 18.4373 52.0475 18.576C52.2729 18.7147 52.5242 18.8273 52.8015 18.914C53.0962 18.9833 53.3909 19.044 53.6855 19.096L55.7915 19.408C56.2769 19.4773 56.7882 19.5727 57.3255 19.694C57.8629 19.8153 58.3569 20.0147 58.8075 20.292C59.2582 20.552 59.6309 20.9073 59.9255 21.358C60.2375 21.8087 60.3935 22.398 60.3935 23.126C60.3935 24.4607 59.8735 25.492 58.8335 26.22C57.8109 26.948 56.4415 27.312 54.7255 27.312ZM64.9074 7.76H66.9874V15.768H67.0914C67.23 15.4387 67.4034 15.1267 67.6114 14.832C67.8194 14.52 68.0707 14.2513 68.3654 14.026C68.6774 13.8007 69.0414 13.6187 69.4574 13.48C69.8734 13.3413 70.3587 13.272 70.9134 13.272C72.3174 13.272 73.444 13.7227 74.2934 14.624C75.1427 15.508 75.5674 16.7647 75.5674 18.394V27H73.4874V18.758C73.4874 17.5273 73.2187 16.6173 72.6814 16.028C72.144 15.4213 71.3554 15.118 70.3154 15.118C69.8994 15.118 69.492 15.17 69.0934 15.274C68.6947 15.378 68.3394 15.534 68.0274 15.742C67.7154 15.95 67.464 16.2187 67.2734 16.548C67.0827 16.8773 66.9874 17.2587 66.9874 17.692V27H64.9074V7.76ZM88.9212 24.816H88.8172C88.6786 25.1453 88.5052 25.466 88.2972 25.778C88.0892 26.0727 87.8292 26.3327 87.5172 26.558C87.2226 26.7833 86.8672 26.9653 86.4512 27.104C86.0352 27.2427 85.5499 27.312 84.9952 27.312C83.5912 27.312 82.4646 26.87 81.6152 25.986C80.7659 25.0847 80.3412 23.8193 80.3412 22.19V13.584H82.4212V21.826C82.4212 23.0567 82.6899 23.9753 83.2272 24.582C83.7646 25.1713 84.5532 25.466 85.5932 25.466C86.0092 25.466 86.4166 25.414 86.8152 25.31C87.2139 25.206 87.5692 25.05 87.8812 24.842C88.1932 24.634 88.4446 24.374 88.6352 24.062C88.8259 23.7327 88.9212 23.3427 88.9212 22.892V13.584H91.0012V27H88.9212V24.816ZM95.6971 25.232H100.221V15.352H95.4371V13.584H100.221V10.828C100.221 9.92667 100.455 9.19 100.923 8.618C101.408 8.046 102.162 7.76 103.185 7.76H107.683V9.528H102.301V13.584H107.683V15.352H102.301V25.232H107.085V27H95.6971V25.232ZM111.287 25.232H115.811V15.352H111.027V13.584H115.811V10.828C115.811 9.92667 116.045 9.19 116.513 8.618C116.998 8.046 117.752 7.76 118.775 7.76H123.273V9.528H117.891V13.584H123.273V15.352H117.891V25.232H122.675V27H111.287V25.232ZM126.799 25.232H131.479V9.528H126.799V7.76H133.559V25.232H138.239V27H126.799V25.232ZM148.343 27.312C147.372 27.312 146.497 27.1473 145.717 26.818C144.954 26.4887 144.295 26.0207 143.741 25.414C143.203 24.79 142.787 24.0533 142.493 23.204C142.198 22.3373 142.051 21.3753 142.051 20.318C142.051 19.2433 142.198 18.2727 142.493 17.406C142.805 16.5393 143.229 15.8027 143.767 15.196C144.304 14.572 144.945 14.0953 145.691 13.766C146.453 13.4367 147.294 13.272 148.213 13.272C149.114 13.272 149.929 13.4367 150.657 13.766C151.402 14.0953 152.035 14.5547 152.555 15.144C153.075 15.716 153.473 16.4007 153.751 17.198C154.028 17.9953 154.167 18.8707 154.167 19.824V20.812H144.235V21.436C144.235 22.0253 144.33 22.5713 144.521 23.074C144.711 23.5767 144.98 24.01 145.327 24.374C145.691 24.738 146.124 25.024 146.627 25.232C147.147 25.4227 147.719 25.518 148.343 25.518C149.244 25.518 150.024 25.31 150.683 24.894C151.341 24.478 151.844 23.906 152.191 23.178L153.725 24.218C153.326 25.1193 152.659 25.8647 151.723 26.454C150.804 27.026 149.677 27.312 148.343 27.312ZM148.213 14.988C147.641 14.988 147.112 15.092 146.627 15.3C146.141 15.508 145.717 15.794 145.353 16.158C145.006 16.522 144.729 16.9553 144.521 17.458C144.33 17.9433 144.235 18.4807 144.235 19.07V19.252H151.931V18.966C151.931 18.3767 151.835 17.8393 151.645 17.354C151.471 16.8687 151.22 16.4527 150.891 16.106C150.579 15.742 150.189 15.4647 149.721 15.274C149.27 15.0833 148.767 14.988 148.213 14.988Z" fill="#0FC069"/>
<path d="M34.7 22.12L40.64 18.98V18.82L34.7 15.68V12.92L43.3 17.52V20.28L34.7 24.88V22.12Z" fill="white"/>
</svg>
