<svg width="153" height="21" viewBox="0 0 153 21" fill="none" xmlns="http://www.w3.org/2000/svg">
<path d="M0.582672 18.0483H4.50867V8.16831H0.582672V6.40031H6.58867V9.78031H6.71867C6.99601 8.72298 7.51601 7.89964 8.27867 7.31031C9.05867 6.70364 10.0467 6.40031 11.2427 6.40031H13.1147V8.48031H10.5927C9.39667 8.48031 8.42601 8.82697 7.68067 9.52031C6.95267 10.2136 6.58867 11.1236 6.58867 12.2503V18.0483H11.7887V19.8163H0.582672V18.0483Z" fill="#0FC069"/>
<path d="M22.2045 20.1283C21.2338 20.1283 20.3585 19.9636 19.5785 19.6343C18.8158 19.305 18.1572 18.837 17.6025 18.2303C17.0652 17.6063 16.6492 16.8696 16.3545 16.0203C16.0598 15.1536 15.9125 14.1916 15.9125 13.1343C15.9125 12.0596 16.0598 11.089 16.3545 10.2223C16.6665 9.35564 17.0912 8.61898 17.6285 8.01231C18.1658 7.38831 18.8072 6.91164 19.5525 6.58231C20.3152 6.25298 21.1558 6.08831 22.0745 6.08831C22.9758 6.08831 23.7905 6.25298 24.5185 6.58231C25.2638 6.91164 25.8965 7.37098 26.4165 7.96031C26.9365 8.53231 27.3352 9.21698 27.6125 10.0143C27.8899 10.8116 28.0285 11.687 28.0285 12.6403V13.6283H18.0965V14.2523C18.0965 14.8416 18.1918 15.3876 18.3825 15.8903C18.5732 16.393 18.8418 16.8263 19.1885 17.1903C19.5525 17.5543 19.9858 17.8403 20.4885 18.0483C21.0085 18.239 21.5805 18.3343 22.2045 18.3343C23.1058 18.3343 23.8858 18.1263 24.5445 17.7103C25.2032 17.2943 25.7058 16.7223 26.0525 15.9943L27.5865 17.0343C27.1878 17.9356 26.5205 18.681 25.5845 19.2703C24.6658 19.8423 23.5392 20.1283 22.2045 20.1283ZM22.0745 7.80431C21.5025 7.80431 20.9738 7.90831 20.4885 8.11631C20.0032 8.32431 19.5785 8.61031 19.2145 8.97431C18.8678 9.33831 18.5905 9.77164 18.3825 10.2743C18.1918 10.7596 18.0965 11.297 18.0965 11.8863V12.0683H25.7925V11.7823C25.7925 11.193 25.6972 10.6556 25.5065 10.1703C25.3332 9.68498 25.0818 9.26897 24.7525 8.92231C24.4405 8.55831 24.0505 8.28098 23.5825 8.09031C23.1318 7.89964 22.6292 7.80431 22.0745 7.80431Z" fill="#0FC069"/>
<path d="M53.3062 20.1283C51.9022 20.1283 50.6889 19.8943 49.6662 19.4263C48.6609 18.941 47.8029 18.2996 47.0922 17.5023L48.4962 16.2803C49.1375 16.9563 49.8395 17.4763 50.6022 17.8403C51.3649 18.2043 52.2835 18.3863 53.3582 18.3863C54.3982 18.3863 55.2475 18.2043 55.9062 17.8403C56.5822 17.459 56.9202 16.8696 56.9202 16.0723C56.9202 15.7256 56.8509 15.4396 56.7122 15.2143C56.5909 14.9716 56.4175 14.781 56.1922 14.6423C55.9669 14.5036 55.7155 14.3996 55.4382 14.3303C55.1609 14.2436 54.8662 14.1743 54.5542 14.1223L52.4482 13.8103C51.9802 13.741 51.4689 13.6456 50.9142 13.5243C50.3769 13.403 49.8829 13.2123 49.4322 12.9523C48.9815 12.675 48.6002 12.311 48.2882 11.8603C47.9935 11.4096 47.8462 10.8203 47.8462 10.0923C47.8462 9.41631 47.9762 8.83564 48.2362 8.35031C48.5135 7.84764 48.8949 7.43164 49.3802 7.10231C49.8655 6.75564 50.4375 6.50431 51.0962 6.34831C51.7549 6.17498 52.4742 6.08831 53.2542 6.08831C54.4675 6.08831 55.5162 6.27898 56.4002 6.66031C57.3015 7.04164 58.0729 7.57031 58.7142 8.24631L57.3622 9.52031C57.2062 9.32964 57.0069 9.13898 56.7642 8.94831C56.5389 8.74031 56.2529 8.55831 55.9062 8.40231C55.5769 8.22898 55.1869 8.09031 54.7362 7.98631C54.2855 7.88231 53.7655 7.83031 53.1762 7.83031C52.1189 7.83031 51.3042 8.01231 50.7322 8.37631C50.1775 8.74031 49.9002 9.26898 49.9002 9.96231C49.9002 10.309 49.9609 10.6036 50.0822 10.8463C50.2209 11.0716 50.4029 11.2536 50.6282 11.3923C50.8535 11.531 51.1049 11.6436 51.3822 11.7303C51.6769 11.7996 51.9715 11.8603 52.2662 11.9123L54.3722 12.2243C54.8575 12.2936 55.3689 12.389 55.9062 12.5103C56.4435 12.6316 56.9375 12.831 57.3882 13.1083C57.8389 13.3683 58.2115 13.7236 58.5062 14.1743C58.8182 14.625 58.9742 15.2143 58.9742 15.9423C58.9742 17.277 58.4542 18.3083 57.4142 19.0363C56.3915 19.7643 55.0222 20.1283 53.3062 20.1283Z" fill="#0FC069"/>
<path d="M63.488 0.576309H65.568V8.58431H65.6721C65.8107 8.25497 65.984 7.94298 66.192 7.64831C66.4 7.33631 66.6514 7.06764 66.946 6.84231C67.258 6.61698 67.622 6.43497 68.038 6.29631C68.454 6.15764 68.9394 6.08831 69.494 6.08831C70.898 6.08831 72.0247 6.53898 72.874 7.44031C73.7234 8.32431 74.148 9.58098 74.148 11.2103V19.8163H72.068V11.5743C72.068 10.3436 71.7994 9.43364 71.262 8.84431C70.7247 8.23764 69.936 7.93431 68.896 7.93431C68.48 7.93431 68.0727 7.98631 67.674 8.09031C67.2754 8.19431 66.92 8.35031 66.608 8.55831C66.296 8.76631 66.0447 9.03498 65.854 9.36431C65.6634 9.69364 65.568 10.075 65.568 10.5083V19.8163H63.488V0.576309Z" fill="#0FC069"/>
<path d="M87.5019 17.6323H87.3979C87.2592 17.9616 87.0859 18.2823 86.8779 18.5943C86.6699 18.889 86.4099 19.149 86.0979 19.3743C85.8032 19.5996 85.4479 19.7816 85.0319 19.9203C84.6159 20.059 84.1306 20.1283 83.5759 20.1283C82.1719 20.1283 81.0452 19.6863 80.1959 18.8023C79.3466 17.901 78.9219 16.6356 78.9219 15.0063V6.40031H81.0019V14.6423C81.0019 15.873 81.2706 16.7916 81.8079 17.3983C82.3452 17.9876 83.1339 18.2823 84.1739 18.2823C84.5899 18.2823 84.9972 18.2303 85.3959 18.1263C85.7946 18.0223 86.1499 17.8663 86.4619 17.6583C86.7739 17.4503 87.0252 17.1903 87.2159 16.8783C87.4066 16.549 87.5019 16.159 87.5019 15.7083V6.40031H89.5819V19.8163H87.5019V17.6323Z" fill="#0FC069"/>
<path d="M94.2777 18.0483H98.8017V8.16831H94.0177V6.40031H98.8017V3.64431C98.8017 2.74298 99.0357 2.00631 99.5037 1.43431C99.9891 0.86231 100.743 0.576309 101.766 0.576309H106.264V2.34431H100.882V6.40031H106.264V8.16831H100.882V18.0483H105.666V19.8163H94.2777V18.0483Z" fill="#0FC069"/>
<path d="M109.868 18.0483H114.392V8.16831H109.608V6.40031H114.392V3.64431C114.392 2.74298 114.626 2.00631 115.094 1.43431C115.579 0.86231 116.333 0.576309 117.356 0.576309H121.854V2.34431H116.472V6.40031H121.854V8.16831H116.472V18.0483H121.256V19.8163H109.868V18.0483Z" fill="#0FC069"/>
<path d="M125.379 18.0483H130.059V2.34431H125.379V0.576309H132.139V18.0483H136.819V19.8163H125.379V18.0483Z" fill="#0FC069"/>
<path d="M146.923 20.1283C145.953 20.1283 145.077 19.9636 144.297 19.6343C143.535 19.305 142.876 18.837 142.321 18.2303C141.784 17.6063 141.368 16.8696 141.073 16.0203C140.779 15.1536 140.631 14.1916 140.631 13.1343C140.631 12.0596 140.779 11.089 141.073 10.2223C141.385 9.35564 141.81 8.61898 142.347 8.01231C142.885 7.38831 143.526 6.91164 144.271 6.58231C145.034 6.25298 145.875 6.08831 146.793 6.08831C147.695 6.08831 148.509 6.25298 149.237 6.58231C149.983 6.91164 150.615 7.37098 151.135 7.96031C151.655 8.53231 152.054 9.21698 152.331 10.0143C152.609 10.8116 152.747 11.687 152.747 12.6403V13.6283H142.815V14.2523C142.815 14.8416 142.911 15.3876 143.101 15.8903C143.292 16.393 143.561 16.8263 143.907 17.1903C144.271 17.5543 144.705 17.8403 145.207 18.0483C145.727 18.239 146.299 18.3343 146.923 18.3343C147.825 18.3343 148.605 18.1263 149.263 17.7103C149.922 17.2943 150.425 16.7223 150.771 15.9943L152.305 17.0343C151.907 17.9356 151.239 18.681 150.303 19.2703C149.385 19.8423 148.258 20.1283 146.923 20.1283ZM146.793 7.80431C146.221 7.80431 145.693 7.90831 145.207 8.11631C144.722 8.32431 144.297 8.61031 143.933 8.97431C143.587 9.33831 143.309 9.77164 143.101 10.2743C142.911 10.7596 142.815 11.297 142.815 11.8863V12.0683H150.511V11.7823C150.511 11.193 150.416 10.6556 150.225 10.1703C150.052 9.68498 149.801 9.26897 149.471 8.92231C149.159 8.55831 148.769 8.28098 148.301 8.09031C147.851 7.89964 147.348 7.80431 146.793 7.80431Z" fill="#0FC069"/>
<path d="M40.8446 14.2013L37.8616 8.55831L37.7096 8.55831L34.7266 14.2013L32.1046 14.2013L36.4746 6.03131L39.0966 6.03131L43.4666 14.2013L40.8446 14.2013Z" fill="white"/>
</svg>
