<svg width="5" height="8" viewBox="0 0 5 8" fill="none" xmlns="http://www.w3.org/2000/svg">
<path fill-rule="evenodd" clip-rule="evenodd" d="M3.8253 4.65003C3.88726 4.61861 3.9454 4.57741 3.99735 4.52643C4.19336 4.33404 4.24742 4.05509 4.15954 3.81495C4.12764 3.71078 4.06977 3.61264 3.98591 3.53034C3.94931 3.49441 3.90962 3.46333 3.8677 3.43712L1.38353 0.9989C1.11286 0.733237 0.674019 0.733237 0.40335 0.9989C0.13268 1.26456 0.13268 1.69529 0.40335 1.96095L2.50402 4.02277L0.449753 6.03905C0.179084 6.30471 0.179084 6.73544 0.449753 7.0011C0.720423 7.26676 1.15926 7.26676 1.42993 7.0011L3.8253 4.65003Z" fill="black"/>
</svg>
